HIERARCHY
ROOT hip
{
  OFFSET 0 0 0
  CHANNELS 6 Xposition Yposition Zposition Zrotation Yrotation Xrotation
  JOINT abdomen
  {
    OFFSET 0 20.6881 -0.73152
    CHANNELS 3 Zrotation Xrotation Yrotation
    JOINT chest
    {
      OFFSET 0 11.7043 -0.48768
      CHANNELS 3 Zrotation Xrotation Yrotation
      JOINT neck
      {
        OFFSET 0 22.1894 -2.19456
        CHANNELS 3 Zrotation Xrotation Yrotation
        JOINT head
        {
          OFFSET -0.24384 7.07133 1.2192
          CHANNELS 3 Zrotation Xrotation Yrotation
          JOINT leftEye
          {
            OFFSET 4.14528 8.04674 8.04672
            CHANNELS 3 Zrotation Xrotation Yrotation
            End Site
            {
              OFFSET 1 0 0
            }
          }
          JOINT rightEye
          {
            OFFSET -3.6576 8.04674 8.04672
            CHANNELS 3 Zrotation Xrotation Yrotation
            End Site
            {
              OFFSET 1 0 0
            }
          }
        }
      }
      JOINT rCollar
      {
        OFFSET -2.68224 19.2634 -4.8768
        CHANNELS 3 Zrotation Xrotation Yrotation
        JOINT rShldr
        {
          OFFSET -8.77824 -1.95073 1.46304
          CHANNELS 3 Zrotation Xrotation Yrotation
          JOINT rForeArm
          {
            OFFSET -28.1742 -1.7115 0.48768
            CHANNELS 3 Zrotation Xrotation Yrotation
            JOINT rHand
            {
              OFFSET -22.5879 0.773209 7.07136
              CHANNELS 3 Zrotation Xrotation Yrotation
              JOINT rThumb1
              {
                OFFSET -1.2192 -0.487915 3.41376
                CHANNELS 3 Zrotation Xrotation Yrotation
                JOINT rThumb2
                {
                  OFFSET -3.37035 -0.52449 3.41376
                  CHANNELS 3 Zrotation Xrotation Yrotation
                  End Site
                  {
                    OFFSET -1.78271 -1.18214 1.43049
                  }
                }
              }
              JOINT rIndex1
              {
                OFFSET -7.75947 0.938293 5.60832
                CHANNELS 3 Zrotation Xrotation Yrotation
                JOINT rIndex2
                {
                  OFFSET -2.54057 -0.884171 1.56538
                  CHANNELS 3 Zrotation Xrotation Yrotation
                  End Site
                  {
                    OFFSET -1.62519 -0.234802 1.16502
                  }
                }
              }
              JOINT rMid1
              {
                OFFSET -8.24714 1.18213 3.41376
                CHANNELS 3 Zrotation Xrotation Yrotation
                JOINT rMid2
                {
                  OFFSET -3.10165 -0.590103 1.0647
                  CHANNELS 3 Zrotation Xrotation Yrotation
                  End Site
                  {
                    OFFSET -2.48547 -0.328903 0.83742
                  }
                }
              }
              JOINT rRing1
              {
                OFFSET -8.82822 0.546677 1.51678
                CHANNELS 3 Zrotation Xrotation Yrotation
                JOINT rRing2
                {
                  OFFSET -2.60934 -0.819778 -0.0198488
                  CHANNELS 3 Zrotation Xrotation Yrotation
                  End Site
                  {
                    OFFSET -2.33842 -0.294052 0.168128
                  }
                }
              }
              JOINT rPinky1
              {
                OFFSET -8.27202 -0.0477905 -0.4584
                CHANNELS 3 Zrotation Xrotation Yrotation
                JOINT rPinky2
                {
                  OFFSET -1.82734 -0.647385 -0.700984
                  CHANNELS 3 Zrotation Xrotation Yrotation
                  End Site
                  {
                    OFFSET -1.69225 -0.51767 -0.607171
                  }
                }
              }
            }
          }
        }
      }
      JOINT lCollar
      {
        OFFSET 2.68224 19.2634 -4.8768
        CHANNELS 3 Zrotation Xrotation Yrotation
        JOINT lShldr
        {
          OFFSET 8.77824 -1.95073 1.46304
          CHANNELS 3 Zrotation Xrotation Yrotation
          JOINT lForeArm
          {
            OFFSET 28.1742 -1.7115 0.48768
            CHANNELS 3 Zrotation Xrotation Yrotation
            JOINT lHand
            {
              OFFSET 22.5879 0.773209 7.07136
              CHANNELS 3 Zrotation Xrotation Yrotation
              JOINT lThumb1
              {
                OFFSET 1.2192 -0.487915 3.41376
                CHANNELS 3 Zrotation Xrotation Yrotation
                JOINT lThumb2
                {
                  OFFSET 3.37035 -0.52449 3.41376
                  CHANNELS 3 Zrotation Xrotation Yrotation
                  End Site
                  {
                    OFFSET 1.78271 -1.18214 1.43049
                  }
                }
              }
              JOINT lIndex1
              {
                OFFSET 7.75947 0.938293 5.60832
                CHANNELS 3 Zrotation Xrotation Yrotation
                JOINT lIndex2
                {
                  OFFSET 2.54057 -0.884171 1.56538
                  CHANNELS 3 Zrotation Xrotation Yrotation
                  End Site
                  {
                    OFFSET 1.62519 -0.234802 1.16502
                  }
                }
              }
              JOINT lMid1
              {
                OFFSET 8.24714 1.18213 3.41376
                CHANNELS 3 Zrotation Xrotation Yrotation
                JOINT lMid2
                {
                  OFFSET 3.10165 -0.590103 1.0647
                  CHANNELS 3 Zrotation Xrotation Yrotation
                  End Site
                  {
                    OFFSET 2.48547 -0.328903 0.83742
                  }
                }
              }
              JOINT lRing1
              {
                OFFSET 8.82822 0.546677 1.51678
                CHANNELS 3 Zrotation Xrotation Yrotation
                JOINT lRing2
                {
                  OFFSET 2.60934 -0.819778 -0.0198488
                  CHANNELS 3 Zrotation Xrotation Yrotation
                  End Site
                  {
                    OFFSET 2.33842 -0.294052 0.168128
                  }
                }
              }
              JOINT lPinky1
              {
                OFFSET 8.27202 -0.0477905 -0.4584
                CHANNELS 3 Zrotation Xrotation Yrotation
                JOINT lPinky2
                {
                  OFFSET 1.82734 -0.647385 -0.700984
                  CHANNELS 3 Zrotation Xrotation Yrotation
                  End Site
                  {
                    OFFSET 1.69225 -0.51767 -0.607171
                  }
                }
              }
            }
          }
        }
      }
    }
  }
  JOINT rButtock
  {
    OFFSET -8.77824 4.35084 1.2192
    CHANNELS 3 Zrotation Xrotation Yrotation
    JOINT rThigh
    {
      OFFSET 0 -1.70687 -2.19456
      CHANNELS 3 Zrotation Xrotation Yrotation
      JOINT rShin
      {
        OFFSET 0 -36.8199 0.73152
        CHANNELS 3 Zrotation Xrotation Yrotation
        JOINT rFoot
        {
          OFFSET 0.73152 -45.1104 -5.12064
          CHANNELS 3 Zrotation Xrotation Yrotation
          End Site
          {
            OFFSET -1.1221 -3.69964 12.103
          }
        }
      }
    }
  }
  JOINT lButtock
  {
    OFFSET 8.77824 4.35084 1.2192
    CHANNELS 3 Zrotation Xrotation Yrotation
    JOINT lThigh
    {
      OFFSET 0 -1.70687 -2.19456
      CHANNELS 3 Zrotation Xrotation Yrotation
      JOINT lShin
      {
        OFFSET 0 -36.8199 0.73152
        CHANNELS 3 Zrotation Xrotation Yrotation
        JOINT lFoot
        {
          OFFSET -0.73152 -45.1104 -5.12064
          CHANNELS 3 Zrotation Xrotation Yrotation
          End Site
          {
            OFFSET 1.1221 -3.69964 12.103
          }
        }
      }
    }
  }
}
MOTION
Frames:	6
Frame Time:	0.00833333
-63.4549 68.7328 96.2922 -0.0 0.0 -0.0 -0.0 -4.771896 -180.0 -0.0 -4.771896 180.0 -8.072185 8.718885 -71.807182 10.785093 4.96472 71.954626 0.0 0.0 0.0 0.0 0.0 0.0 -80.1661 68.371792 83.260848 -155.991316 -7.170251 179.492702 -161.213365 9.008179 155.37985 72.928934 -70.111625 58.203049 81.971691 -50.091534 32.722881 -33.262028 8.492497 -6.325515 -138.493513 4.896353 114.8648 82.987876 -73.209205 24.357788 173.123457 -66.297779 137.614274 -11.381056 31.597555 12.019335 0.000474 0.063711 0.020016 -0.067868 0.864583 0.097194 -145.173549 12.06758 -141.82295 -145.980353 14.502864 -142.397872 155.716846 -4.925325 -162.135615 1.167564 43.994834 -27.402238 -12.389379 -57.409804 26.457931 -173.169924 -9.122015 -144.688036 13.602797 12.630156 -3.550773 154.193428 -58.368636 -109.052386 1.161729 1.860943 -0.668925 72.030725 47.848868 -46.157199 160.573436 -6.359341 -143.198121 160.542167 -6.269859 -143.205677 145.099691 -1.522044 178.64987 -22.356863 39.910525 4.092949 5.648164 -12.860949 5.301603 0.341959 -2.093012 0.059018 -0.0 0.0 -0.0 -0.0 -0.0 -0.0 -3.153102 1.355345 -30.251664 -51.414067 -29.736803 35.13112 -0.0 0.0 -0.0 -0.0 -0.0 -0.0 3.153102 1.355345 30.251664 51.414067 -29.736803 -35.13112
-62.5956 68.86 96.1191 -0.0 0.0 -0.0 0.0 0.0 0.0 0.0 -0.0 -0.0 -7.417427 6.176288 -56.922404 9.210072 2.862964 57.092487 0.0 -0.0 -0.0 0.0 -0.0 -0.0 -80.1661 68.371792 83.260848 -155.991316 -7.170251 179.492702 -159.03814 25.310157 155.272013 38.128463 -61.34834 25.685803 -174.088169 -11.753554 89.875806 -138.266576 10.954801 70.151189 -140.164771 2.326489 115.87806 -9.489389 45.416856 4.356654 -161.153703 -8.160616 143.465095 -160.982655 -7.560875 143.220681 -145.119466 0.267753 -179.212454 -64.782888 -77.937461 -96.630994 0.098846 0.258289 0.091255 -141.004881 -12.324722 -136.132654 155.716846 -4.925325 -162.135615 1.167564 43.994834 -27.402238 -11.185579 -61.076964 27.371442 -171.993698 -12.656438 -144.34421 -116.309427 -50.010152 -56.954107 176.685021 -55.241801 -132.840182 0.327682 0.529888 -0.186114 -1.193089 -1.752136 0.341677 0.338921 0.98201 -0.189848 0.141708 0.441385 -0.002093 0.060532 -3.508433 1.104594 -2.082119 -45.181304 4.593307 132.163084 -18.654983 129.69238 148.489326 24.44545 146.028444 -0.0 0.0 -0.0 -0.0 -0.0 -0.0 -3.153102 1.355345 -30.251664 -51.414067 -29.736803 35.13112 -0.0 0.0 -0.0 -0.0 -0.0 -0.0 3.153102 1.355345 30.251664 51.414067 -29.736803 -35.13112
-61.793699999999994 68.9775 95.9669 -0.0 0.0 -0.0 0.0 0.0 0.0 0.0 -0.0 -0.0 -7.417427 6.176288 -56.922404 9.210072 2.862964 57.092487 0.0 0.0 0.0 0.0 0.0 0.0 -80.1661 68.371792 83.260848 -155.991316 -7.170251 179.492702 -159.03814 25.310157 155.272013 38.128463 -61.34834 25.685803 76.384988 -49.199857 28.871344 -139.005131 12.824833 105.961849 -14.056583 19.017361 9.430399 -162.457211 4.49214 112.375772 -36.036059 51.723116 29.832321 5.051878 -11.321259 -3.778623 -71.771066 -72.141752 -88.738482 7.765096 29.717343 11.574356 -145.397571 12.779135 -142.020996 -153.319235 37.571221 -146.088184 155.716846 -4.925325 -162.135615 1.167564 43.994834 -27.402238 -11.185579 -61.076964 27.371442 -171.993698 -12.656438 -144.34421 -116.309427 -50.010152 -56.954107 176.685021 -55.241801 -132.840182 0.327682 0.529888 -0.186114 -1.193089 -1.752136 0.341677 0.338921 0.98201 -0.189848 0.141708 0.441385 -0.002093 0.060532 -3.508433 1.104594 -2.082119 -45.181304 4.593307 132.163084 -18.654983 129.69238 148.489326 24.44545 146.028444 -0.0 0.0 -0.0 -0.0 -0.0 -0.0 -3.153102 1.355345 -30.251664 -51.414067 -29.736803 35.13112 -0.0 0.0 -0.0 -0.0 -0.0 -0.0 3.153102 1.355345 30.251664 51.414067 -29.736803 -35.13112
-61.0595 69.0962 95.8293 -0.0 -0.0 0.0 0.0 0.0 0.0 0.0 -0.0 -0.0 -1.239633 0.331232 -7.299189 1.271675 -0.170986 7.30467 0.0 -0.0 -0.0 0.0 -0.0 -0.0 3.542039 -62.05305 -13.039183 -6.473402 14.706175 14.006458 13.430412 1.579882 -1.351106 -16.84416 44.23236 5.270435 76.384988 -49.199857 28.871344 -21.031823 -13.509692 -19.04667 -146.663082 -8.598778 119.300153 158.519845 -69.226346 91.64421 -161.518715 -9.304265 143.625478 -167.276318 -26.261714 143.787558 -145.119208 0.226597 -179.199525 20.502379 -0.586481 -9.119282 -145.173549 12.06758 -141.82295 24.972032 58.310798 6.073956 -4.239307 -44.742767 8.647656 136.893351 70.630053 -135.26229 -5.955945 -70.346082 -2.409138 3.495324 11.147427 0.041547 0.543938 0.536215 -0.086055 15.062704 14.887396 -13.340654 90.225558 41.072425 -75.796697 11.464577 36.267155 3.814628 -0.541241 -1.589941 0.294737 166.368461 -4.326257 -143.185529 70.379629 -72.130165 87.279981 -14.437114 0.864298 -5.97533 -26.973563 80.122588 -10.137824 7.456831 -16.826828 10.09666 -180.0 75.749642 -0.0 -180.0 73.473292 -180.0 -6.751865 -5.671842 -110.293685 -59.440967 -85.37786 -156.899883 -180.0 75.749642 -0.0 -180.0 73.473292 -180.0 6.751865 -5.671842 110.293685 59.440967 -85.37786 156.899883
-60.39489999999999 69.2082 95.7001 -0.0 -0.0 0.0 0.0 0.0 0.0 0.0 -0.0 -0.0 -1.239633 0.331232 -7.299189 1.271675 -0.170986 7.30467 0.0 -0.0 -0.0 0.0 -0.0 -0.0 3.542039 -62.05305 -13.039183 -175.77723 -0.914567 165.478557 171.788752 -12.256944 173.719429 -19.595447 48.58204 7.109614 175.880133 -21.257501 88.493291 19.982655 -69.287243 12.950122 -151.353117 -17.158427 121.133109 -55.461556 58.862446 49.342161 -160.09819 -4.901163 142.968881 -167.132372 -26.238613 144.068408 -145.119466 0.267775 -179.212461 -143.656258 -13.878583 -177.237485 -110.054214 -41.782596 -108.1278 15.924369 42.709985 9.760724 -4.239307 -44.742767 8.647656 136.893351 70.630053 -135.26229 -5.955945 -70.346082 -2.409138 3.495324 11.147427 0.041547 0.543938 0.536215 -0.086055 136.839674 -39.371572 -118.301425 90.225558 41.072425 -75.796697 161.952317 -8.636182 -124.372875 -0.541241 -1.589941 0.294737 166.368461 -4.326257 -143.185529 70.379629 -72.130165 87.279981 -14.437114 0.864298 -5.97533 -26.973563 80.122588 -10.137824 7.456831 -16.826828 10.09666 -180.0 75.749642 -0.0 -180.0 75.749642 -0.0 -2.721753 1.041334 -25.607042 76.415663 6.9405 -6.063852 -180.0 75.749642 -0.0 -180.0 75.749642 -0.0 2.721753 1.041334 25.607042 -76.415663 6.9405 6.063852
-59.7991 69.3114 95.5754 -0.0 0.0 -0.0 0.0 0.0 0.0 0.0 -0.0 -0.0 -7.417427 6.176288 -56.922404 9.210072 2.862964 57.092487 0.0 -0.0 -0.0 0.0 -0.0 -0.0 -80.1661 68.371792 83.260848 -155.991316 -7.170251 179.492702 -159.03814 25.310157 155.272013 38.128463 -61.34834 25.685803 76.384988 -49.199857 28.871344 -139.005131 12.824833 105.961849 -14.056583 19.017361 9.430399 -162.457211 4.49214 112.375772 -36.036059 51.723116 29.832321 5.051878 -11.321259 -3.778623 -71.771066 -72.141752 -88.738482 7.765096 29.717343 11.574356 -145.397571 12.779135 -142.020996 -153.319235 37.571221 -146.088184 155.716846 -4.925325 -162.135615 1.167564 43.994834 -27.402238 -11.185579 -61.076964 27.371442 -171.993698 -12.656438 -144.34421 -116.309427 -50.010152 -56.954107 165.939842 -21.443093 -121.195067 0.327682 0.529888 -0.186114 -1.193089 -1.752136 0.341677 0.338921 0.98201 -0.189848 -8.295584 -25.440366 1.589602 0.060532 -3.508433 1.104594 -2.082119 -45.181304 4.593307 132.163084 -18.654983 129.69238 148.489326 24.44545 146.028444 -0.0 0.0 -0.0 -0.0 -0.0 -0.0 -3.153102 1.355345 -30.251664 -51.414067 -29.736803 35.13112 -0.0 0.0 -0.0 -0.0 -0.0 -0.0 3.153102 1.355345 30.251664 51.414067 -29.736803 -35.13112
